<?xml version="1.0" encoding="utf-8"?>
<!-- Generator: Adobe Illustrator 24.1.3, SVG Export Plug-In . SVG Version: 6.00 Build 0)  -->
<svg version="1.1" id="getopt_1_" xmlns="http://www.w3.org/2000/svg" xmlns:xlink="http://www.w3.org/1999/xlink" x="0px" y="0px"
	 viewBox="0 0 279 80.5" style="enable-background:new 0 0 279 80.5;" xml:space="preserve">
<style type="text/css">
	.st0{fill-rule:evenodd;clip-rule:evenodd;}
</style>
<g id="getopt">
	<g>
		<path class="st0" d="M35.41,20.4c-1.01-1.9-2.64-3.49-4.88-4.79c-2.24-1.29-5.17-1.94-8.77-1.94c-3.16,0-6.05,0.6-8.67,1.8
			c-2.62,1.2-4.87,2.81-6.73,4.84c-1.86,2.02-3.32,4.39-4.36,7.11c-1.04,2.72-1.56,5.63-1.56,8.72c0,3.22,0.54,6.21,1.61,8.96
			c1.07,2.75,2.56,5.12,4.46,7.11c1.9,1.99,4.14,3.56,6.73,4.69c2.59,1.14,5.44,1.71,8.53,1.71c3.41,0,6.24-0.66,8.49-1.99
			c2.24-1.33,3.87-2.91,4.88-4.74v4.84c0,9.23-4.36,13.84-13.08,13.84c-3.22,0-5.86-0.95-7.92-2.84c-2.05-1.9-3.27-4.27-3.65-7.11
			L0.34,63.26c0.32,2.34,1.06,4.53,2.23,6.59c1.17,2.05,2.72,3.84,4.65,5.36c1.93,1.52,4.17,2.72,6.73,3.6
			c2.56,0.88,5.36,1.33,8.39,1.33c4.36,0,8.04-0.66,11.04-1.99c3-1.33,5.43-3.1,7.3-5.31c1.86-2.21,3.22-4.74,4.08-7.58
			c0.85-2.84,1.28-5.81,1.28-8.91V14.53H35.41V20.4z M32.14,45.67c-2.18,2.37-5.04,3.56-8.58,3.56c-3.6,0-6.51-1.17-8.72-3.51
			c-2.21-2.34-3.32-5.53-3.32-9.58c0-3.98,1.12-7.14,3.37-9.48c2.24-2.34,5.13-3.51,8.67-3.51c1.71,0,3.29,0.3,4.74,0.9
			c1.45,0.6,2.7,1.47,3.74,2.61c1.04,1.14,1.86,2.51,2.46,4.12c0.6,1.61,0.9,3.4,0.9,5.36C35.41,40.12,34.32,43.3,32.14,45.67z
			 M94.86,19.65c-1.93-2.09-4.3-3.7-7.11-4.84c-2.81-1.14-5.99-1.71-9.53-1.71c-2.91,0-5.72,0.59-8.44,1.75
			c-2.72,1.17-5.12,2.81-7.21,4.93c-2.09,2.12-3.74,4.66-4.98,7.63c-1.23,2.97-1.85,6.29-1.85,9.95c0,3.92,0.65,7.41,1.94,10.48
			c1.29,3.07,3.02,5.66,5.17,7.77c2.15,2.12,4.65,3.73,7.49,4.84c2.84,1.11,5.85,1.66,9.01,1.66c2.78,0,5.31-0.38,7.58-1.14
			c2.28-0.76,4.3-1.8,6.07-3.13c1.77-1.33,3.25-2.88,4.46-4.65c1.2-1.77,2.12-3.66,2.75-5.69l-9.29-2.94
			c-0.76,2.28-2.04,4.19-3.84,5.74c-1.8,1.55-4.38,2.32-7.73,2.32c-1.71,0-3.3-0.3-4.79-0.9c-1.49-0.6-2.8-1.44-3.93-2.51
			c-1.14-1.07-2.05-2.34-2.75-3.79c-0.7-1.45-1.08-3.06-1.14-4.84h33.75c0.06-0.13,0.13-0.52,0.19-1.19
			c0.06-0.66,0.09-1.44,0.09-2.32c0-3.66-0.51-6.97-1.52-9.91C98.25,24.24,96.78,21.73,94.86,19.65z M67.03,32.54
			c0.06-1.2,0.38-2.42,0.95-3.65s1.33-2.34,2.28-3.32c0.95-0.98,2.1-1.77,3.46-2.37c1.36-0.6,2.89-0.9,4.6-0.9
			c1.9,0,3.54,0.28,4.93,0.85c1.39,0.57,2.56,1.33,3.51,2.28c0.95,0.95,1.66,2.04,2.13,3.27c0.47,1.23,0.74,2.51,0.81,3.84H67.03z
			 M130.91,51.5c-2.02,0-3.51-0.46-4.46-1.37c-0.95-0.92-1.42-2.38-1.42-4.41V24.29h9.58v-9.76h-9.58V0.4h-9.95v6.92
			c0,2.02-0.57,3.73-1.71,5.12c-1.14,1.39-2.94,2.09-5.4,2.09h-2.37v9.76h8.53v23.23c0,4.36,1.23,7.74,3.7,10.14
			c2.46,2.4,5.85,3.6,10.14,3.6c2.02,0,3.57-0.14,4.65-0.43c1.07-0.28,1.77-0.49,2.09-0.62v-9.1c-0.25,0.06-0.76,0.14-1.52,0.24
			C132.43,51.45,131.67,51.5,130.91,51.5z M181.46,20.07c-2.15-2.18-4.68-3.89-7.58-5.12c-2.91-1.23-6.1-1.85-9.58-1.85
			c-3.41,0-6.59,0.62-9.53,1.85c-2.94,1.23-5.47,2.94-7.58,5.12c-2.12,2.18-3.78,4.76-4.98,7.73c-1.2,2.97-1.8,6.23-1.8,9.76
			c0,3.54,0.6,6.81,1.8,9.81c1.2,3,2.86,5.59,4.98,7.77c2.12,2.18,4.65,3.89,7.58,5.12c2.94,1.23,6.11,1.85,9.53,1.85
			c3.48,0,6.67-0.62,9.58-1.85c2.91-1.23,5.43-2.94,7.58-5.12c2.15-2.18,3.82-4.77,5.02-7.77c1.2-3,1.8-6.27,1.8-9.81
			c0-3.54-0.6-6.79-1.8-9.76C185.28,24.83,183.61,22.25,181.46,20.07z M176.15,43.92c-0.7,1.83-1.64,3.37-2.84,4.6
			c-1.2,1.23-2.58,2.17-4.12,2.8c-1.55,0.63-3.18,0.95-4.88,0.95s-3.33-0.32-4.88-0.95c-1.55-0.63-2.91-1.56-4.08-2.8
			c-1.17-1.23-2.12-2.76-2.84-4.6c-0.73-1.83-1.09-3.95-1.09-6.35c0-2.4,0.36-4.5,1.09-6.3c0.73-1.8,1.67-3.32,2.84-4.55
			c1.17-1.23,2.53-2.15,4.08-2.75c1.55-0.6,3.18-0.9,4.88-0.9s3.33,0.3,4.88,0.9c1.55,0.6,2.92,1.52,4.12,2.75
			c1.2,1.23,2.15,2.75,2.84,4.55c0.69,1.8,1.04,3.9,1.04,6.3C177.19,39.97,176.84,42.08,176.15,43.92z M239.37,20.4
			c-1.8-2.15-4.03-3.84-6.68-5.07c-2.65-1.23-5.69-1.85-9.1-1.85c-3.6,0-6.67,0.71-9.2,2.13c-2.53,1.42-4.36,3.14-5.5,5.17v-6.26
			h-10.62v64.18h10.9V55.48c1.2,1.77,3,3.27,5.4,4.5c2.4,1.23,5.28,1.85,8.63,1.85c3.29,0,6.27-0.62,8.96-1.85
			c2.69-1.23,4.98-2.94,6.87-5.12c1.9-2.18,3.35-4.74,4.36-7.68c1.01-2.94,1.52-6.15,1.52-9.62c0-3.41-0.47-6.59-1.42-9.53
			S241.18,22.55,239.37,20.4z M230.46,48.14c-2.31,2.62-5.29,3.93-8.96,3.93c-3.6,0-6.57-1.31-8.91-3.93
			c-2.34-2.62-3.51-6.15-3.51-10.57c0-2.15,0.32-4.11,0.95-5.88c0.63-1.77,1.48-3.27,2.56-4.5c1.07-1.23,2.37-2.2,3.89-2.89
			c1.52-0.69,3.19-1.04,5.02-1.04c3.73,0,6.73,1.3,9.01,3.89c2.28,2.59,3.41,6.07,3.41,10.43
			C233.92,41.99,232.77,45.51,230.46,48.14z M277.28,51.36c-0.76,0.09-1.52,0.14-2.28,0.14c-2.02,0-3.51-0.46-4.46-1.37
			c-0.95-0.92-1.42-2.38-1.42-4.41V24.29h9.58v-9.76h-9.58V0.4h-9.95v6.92c0,2.02-0.57,3.73-1.71,5.12
			c-1.14,1.39-2.94,2.09-5.4,2.09h-2.37v9.76h8.53v23.23c0,4.36,1.23,7.74,3.7,10.14c2.46,2.4,5.85,3.6,10.14,3.6
			c2.02,0,3.57-0.14,4.65-0.43c1.07-0.28,1.77-0.49,2.09-0.62v-9.1C278.54,51.19,278.03,51.26,277.28,51.36z"/>
	</g>
</g>
</svg>
